<svg width="163" height="327" viewBox="0 0 163 327" fill="none" xmlns="http://www.w3.org/2000/svg">
<rect x="4.01258" y="0.793828" width="154.372" height="324.64" rx="26.7495" fill="#181818"/>
<rect x="4.01258" y="0.793828" width="154.372" height="324.64" rx="26.7495" stroke="#3E3E3E" stroke-width="1.58766"/>
<rect x="19.3281" y="62.5012" width="124.3" height="27.5" rx="7.92" fill="#292929"/>
<path d="M25.9277 73.1855H29.3597V78.0629H28.7327V73.7663H26.5547V78.0629H25.9277V73.1855Z" fill="#9F9F9F"/>
<path d="M29.9601 76.2545C29.9601 75.9817 30.0085 75.7309 30.1053 75.5021C30.2065 75.2689 30.3429 75.0687 30.5145 74.9015C30.6861 74.7299 30.8885 74.5957 31.1217 74.4989C31.3593 74.4021 31.6167 74.3537 31.8939 74.3537C32.1579 74.3537 32.4043 74.4021 32.6331 74.4989C32.8619 74.5957 33.0599 74.7299 33.2271 74.9015C33.3987 75.0731 33.5307 75.2755 33.6231 75.5087C33.7199 75.7375 33.7683 75.9883 33.7683 76.2611C33.7683 76.5295 33.7199 76.7781 33.6231 77.0069C33.5307 77.2357 33.3987 77.4359 33.2271 77.6075C33.0599 77.7747 32.8619 77.9067 32.6331 78.0035C32.4043 78.1003 32.1579 78.1487 31.8939 78.1487C31.6211 78.1487 31.3659 78.1003 31.1283 78.0035C30.8951 77.9067 30.6905 77.7747 30.5145 77.6075C30.3429 77.4359 30.2065 77.2357 30.1053 77.0069C30.0085 76.7737 29.9601 76.5229 29.9601 76.2545ZM31.8873 77.5811C32.0677 77.5811 32.2349 77.5481 32.3889 77.4821C32.5429 77.4161 32.6749 77.3237 32.7849 77.2049C32.8993 77.0861 32.9873 76.9475 33.0489 76.7891C33.1149 76.6263 33.1479 76.4503 33.1479 76.2611C33.1479 76.0675 33.1149 75.8893 33.0489 75.7265C32.9873 75.5637 32.8971 75.4229 32.7783 75.3041C32.6639 75.1853 32.5275 75.0929 32.3691 75.0269C32.2107 74.9565 32.0391 74.9213 31.8543 74.9213C31.6739 74.9213 31.5067 74.9565 31.3527 75.0269C31.1987 75.0929 31.0645 75.1853 30.9501 75.3041C30.8357 75.4229 30.7455 75.5637 30.6795 75.7265C30.6179 75.8893 30.5871 76.0653 30.5871 76.2545C30.5871 76.4437 30.6201 76.6197 30.6861 76.7825C30.7521 76.9453 30.8423 77.0861 30.9567 77.2049C31.0755 77.3237 31.2141 77.4161 31.3725 77.4821C31.5309 77.5481 31.7025 77.5811 31.8873 77.5811Z" fill="#9F9F9F"/>
<path d="M34.2854 74.4395H34.9058V76.0697L36.4238 74.4395H37.2026L35.513 76.2083L37.229 78.0629H36.4238L34.9058 76.3667V78.0629H34.2854V74.4395Z" fill="#9F9F9F"/>
<path d="M38.5475 77.8715L37.1681 74.4395H37.8611L38.8907 77.1455L39.9995 74.4395H40.6859L38.5871 79.3169H37.9271L38.5475 77.8715Z" fill="#9F9F9F"/>
<path d="M40.9952 74.4395H44.1896V78.0629H43.5692V75.0005H41.6156V78.0629H40.9952V74.4395Z" fill="#9F9F9F"/>
<path d="M44.8464 74.4395H45.4668V76.0697L46.9848 74.4395H47.7636L46.074 76.2083L47.79 78.0629H46.9848L45.4668 76.3667V78.0629H44.8464V74.4395Z" fill="#9F9F9F"/>
<path d="M47.9271 76.2611C47.9271 75.9883 47.9733 75.7353 48.0657 75.5021C48.1625 75.2689 48.2945 75.0687 48.4617 74.9015C48.6333 74.7299 48.8335 74.5957 49.0623 74.4989C49.2955 74.4021 49.5463 74.3537 49.8147 74.3537C50.1183 74.3537 50.3757 74.4065 50.5869 74.5121C50.8025 74.6177 50.9961 74.7893 51.1677 75.0269V74.4395H51.7617V78.0629H51.1677V77.4821C50.9785 77.7197 50.7805 77.8913 50.5737 77.9969C50.3713 78.0981 50.1249 78.1487 49.8345 78.1487C49.5617 78.1487 49.3087 78.1025 49.0755 78.0101C48.8423 77.9133 48.6399 77.7813 48.4683 77.6141C48.3011 77.4469 48.1691 77.2489 48.0723 77.0201C47.9755 76.7869 47.9271 76.5339 47.9271 76.2611ZM48.5541 76.2545C48.5541 76.4437 48.5871 76.6197 48.6531 76.7825C48.7235 76.9409 48.8181 77.0795 48.9369 77.1983C49.0557 77.3171 49.1943 77.4117 49.3527 77.4821C49.5155 77.5481 49.6893 77.5811 49.8741 77.5811C50.0589 77.5811 50.2283 77.5481 50.3823 77.4821C50.5407 77.4117 50.6771 77.3171 50.7915 77.1983C50.9059 77.0795 50.9939 76.9387 51.0555 76.7759C51.1215 76.6131 51.1545 76.4371 51.1545 76.2479C51.1545 76.0543 51.1215 75.8783 51.0555 75.7199C50.9895 75.5571 50.8971 75.4163 50.7783 75.2975C50.6639 75.1787 50.5253 75.0863 50.3625 75.0203C50.2041 74.9543 50.0303 74.9213 49.8411 74.9213C49.6607 74.9213 49.4913 74.9565 49.3329 75.0269C49.1789 75.0929 49.0425 75.1875 48.9237 75.3107C48.8093 75.4295 48.7191 75.5703 48.6531 75.7331C48.5871 75.8959 48.5541 76.0697 48.5541 76.2545Z" fill="#9F9F9F"/>
<path d="M54.1248 74.4395H54.7452V75.9443H56.7252V74.4395H57.339V78.0629H56.7252V76.5053H54.7452V78.0629H54.1248V74.4395Z" fill="#9F9F9F"/>
<path d="M57.85 76.2611C57.85 75.9883 57.8962 75.7353 57.9886 75.5021C58.0854 75.2689 58.2174 75.0687 58.3846 74.9015C58.5562 74.7299 58.7564 74.5957 58.9852 74.4989C59.2184 74.4021 59.4692 74.3537 59.7376 74.3537C60.0412 74.3537 60.2986 74.4065 60.5098 74.5121C60.7254 74.6177 60.919 74.7893 61.0906 75.0269V74.4395H61.6846V78.0629H61.0906V77.4821C60.9014 77.7197 60.7034 77.8913 60.4966 77.9969C60.2942 78.0981 60.0478 78.1487 59.7574 78.1487C59.4846 78.1487 59.2316 78.1025 58.9984 78.0101C58.7652 77.9133 58.5628 77.7813 58.3912 77.6141C58.224 77.4469 58.092 77.2489 57.9952 77.0201C57.8984 76.7869 57.85 76.5339 57.85 76.2611ZM58.477 76.2545C58.477 76.4437 58.51 76.6197 58.576 76.7825C58.6464 76.9409 58.741 77.0795 58.8598 77.1983C58.9786 77.3171 59.1172 77.4117 59.2756 77.4821C59.4384 77.5481 59.6122 77.5811 59.797 77.5811C59.9818 77.5811 60.1512 77.5481 60.3052 77.4821C60.4636 77.4117 60.6 77.3171 60.7144 77.1983C60.8288 77.0795 60.9168 76.9387 60.9784 76.7759C61.0444 76.6131 61.0774 76.4371 61.0774 76.2479C61.0774 76.0543 61.0444 75.8783 60.9784 75.7199C60.9124 75.5571 60.82 75.4163 60.7012 75.2975C60.5868 75.1787 60.4482 75.0863 60.2854 75.0203C60.127 74.9543 59.9532 74.9213 59.764 74.9213C59.5836 74.9213 59.4142 74.9565 59.2558 75.0269C59.1018 75.0929 58.9654 75.1875 58.8466 75.3107C58.7322 75.4295 58.642 75.5703 58.576 75.7331C58.51 75.8959 58.477 76.0697 58.477 76.2545Z" fill="#9F9F9F"/>
<path d="M111.974 74.1805H111.207V73.1492H113.072V79.246H111.974V74.1805Z" fill="white"/>
<path d="M119.744 74.1805H117.311V73.1492H120.899V74.1805L118.672 79.246H117.434L119.744 74.1805Z" fill="white"/>
<path d="M122.579 77.4227C122.639 77.7197 122.752 77.948 122.917 78.1075C123.088 78.267 123.305 78.3467 123.569 78.3467C123.866 78.3467 124.108 78.2422 124.295 78.0332C124.482 77.8242 124.575 77.5547 124.575 77.2247C124.575 77.0707 124.551 76.9277 124.501 76.7957C124.452 76.6637 124.383 76.5482 124.295 76.4492C124.207 76.3502 124.102 76.2732 123.981 76.2182C123.86 76.1632 123.728 76.1357 123.585 76.1357C123.409 76.1357 123.258 76.1715 123.132 76.243C123.005 76.309 122.873 76.4272 122.736 76.5977L121.762 76.3337L122.331 73.1492H125.087V74.1805H123.156L122.958 75.3025C123.118 75.2365 123.253 75.1925 123.363 75.1705C123.473 75.143 123.599 75.1292 123.742 75.1292C124.023 75.1292 124.278 75.1815 124.509 75.286C124.746 75.3905 124.949 75.5362 125.12 75.7232C125.296 75.9047 125.431 76.1247 125.524 76.3832C125.623 76.6362 125.673 76.9112 125.673 77.2082C125.673 77.5162 125.62 77.8022 125.516 78.0662C125.411 78.3247 125.266 78.5502 125.079 78.7427C124.897 78.9352 124.68 79.0865 124.427 79.1965C124.174 79.301 123.899 79.3532 123.602 79.3532C123.316 79.3532 123.046 79.3037 122.793 79.2047C122.546 79.1057 122.326 78.971 122.133 78.8005C121.946 78.6245 121.795 78.4182 121.68 78.1817C121.564 77.9452 121.498 77.6922 121.482 77.4227H122.579Z" fill="white"/>
<path d="M127.113 77.4227C127.173 77.7197 127.286 77.948 127.451 78.1075C127.622 78.267 127.839 78.3467 128.103 78.3467C128.4 78.3467 128.642 78.2422 128.829 78.0332C129.016 77.8242 129.109 77.5547 129.109 77.2247C129.109 77.0707 129.085 76.9277 129.035 76.7957C128.986 76.6637 128.917 76.5482 128.829 76.4492C128.741 76.3502 128.636 76.2732 128.515 76.2182C128.394 76.1632 128.262 76.1357 128.119 76.1357C127.943 76.1357 127.792 76.1715 127.666 76.243C127.539 76.309 127.407 76.4272 127.27 76.5977L126.296 76.3337L126.865 73.1492H129.621V74.1805H127.69L127.492 75.3025C127.652 75.2365 127.787 75.1925 127.897 75.1705C128.007 75.143 128.133 75.1292 128.276 75.1292C128.557 75.1292 128.812 75.1815 129.043 75.286C129.28 75.3905 129.483 75.5362 129.654 75.7232C129.83 75.9047 129.965 76.1247 130.058 76.3832C130.157 76.6362 130.207 76.9112 130.207 77.2082C130.207 77.5162 130.154 77.8022 130.05 78.0662C129.945 78.3247 129.8 78.5502 129.613 78.7427C129.431 78.9352 129.214 79.0865 128.961 79.1965C128.708 79.301 128.433 79.3532 128.136 79.3532C127.85 79.3532 127.58 79.3037 127.327 79.2047C127.08 79.1057 126.86 78.971 126.667 78.8005C126.48 78.6245 126.329 78.4182 126.214 78.1817C126.098 77.9452 126.032 77.6922 126.016 77.4227H127.113Z" fill="white"/>
<path d="M134.726 75.748C135.139 75.748 135.436 75.6902 135.617 75.5747C135.799 75.4592 135.89 75.2695 135.89 75.0055C135.89 74.714 135.807 74.5132 135.642 74.4032C135.477 74.2877 135.186 74.23 134.768 74.23H134.429V75.748H134.726ZM133.299 78.223H132.804V77.1422H133.299V76.8287H132.804V75.748H133.299V73.1492H134.784C135.554 73.1492 136.121 73.2977 136.484 73.5947C136.847 73.8862 137.028 74.3482 137.028 74.9807C137.028 75.6297 136.849 76.1 136.492 76.3915C136.134 76.683 135.56 76.8287 134.768 76.8287H134.429V77.1422H136.013V78.223H134.429V79.246H133.299V78.223Z" fill="white"/>
<rect x="19.3281" y="93.3012" width="124.3" height="22" rx="5.5" fill="white"/>
<path d="M60.9756 103.509C60.9756 104.349 60.6958 105.051 60.1361 105.616C59.5711 106.186 58.8794 106.471 58.061 106.471C57.2374 106.471 56.5457 106.186 55.986 105.616C55.4263 105.051 55.1465 104.349 55.1465 103.509C55.1465 102.67 55.4263 101.967 55.986 101.402C56.5457 100.832 57.2374 100.547 58.061 100.547C58.8847 100.547 59.5764 100.835 60.1361 101.41C60.6958 101.975 60.9756 102.675 60.9756 103.509ZM55.891 103.509C55.891 104.164 56.0969 104.705 56.5087 105.133C56.9258 105.56 57.4433 105.774 58.061 105.774C58.6788 105.774 59.1936 105.56 59.6054 105.133C60.0226 104.71 60.2311 104.169 60.2311 103.509C60.2311 102.849 60.0226 102.308 59.6054 101.886C59.1936 101.458 58.6788 101.244 58.061 101.244C57.4433 101.244 56.9258 101.458 56.5087 101.886C56.0969 102.313 55.891 102.854 55.891 103.509Z" fill="black"/>
<path d="M61.685 102.464H64.9718V106.345H64.2352V103.137H62.4216V106.345H61.685V102.464Z" fill="black"/>
<path d="M66.3147 102.464H69.5856V106.345H68.8491V103.137H67.0354V104.42C67.0354 105.476 66.8268 106.107 66.4097 106.313C66.2513 106.382 66.1088 106.416 65.982 106.416C65.7286 106.395 65.6019 106.363 65.6019 106.321C65.6019 106.184 65.6045 105.97 65.6098 105.679C65.689 105.711 65.7708 105.727 65.8553 105.727H65.8632C66.0797 105.727 66.2144 105.584 66.2672 105.299C66.2988 105.067 66.3147 104.813 66.3147 104.539V102.464Z" fill="black"/>
<path d="M70.9947 105.157C70.9947 105.347 71.0739 105.505 71.2323 105.632C71.396 105.758 71.5861 105.822 71.8026 105.822C72.1088 105.822 72.3807 105.708 72.6183 105.481C72.8612 105.254 72.9826 104.988 72.9826 104.681C72.7556 104.502 72.4388 104.412 72.0322 104.412C71.7366 104.412 71.4884 104.483 71.2878 104.626C71.0924 104.768 70.9947 104.945 70.9947 105.157ZM71.9372 102.337C72.4758 102.337 72.9008 102.482 73.2123 102.773C73.5238 103.058 73.6796 103.451 73.6796 103.953V106.345H72.9826V105.806H72.951C72.65 106.25 72.2487 106.471 71.7471 106.471C71.3194 106.471 70.9604 106.345 70.67 106.091C70.3849 105.838 70.2423 105.521 70.2423 105.141C70.2423 104.739 70.3928 104.42 70.6938 104.182C71 103.945 71.4066 103.826 71.9134 103.826C72.3464 103.826 72.7028 103.905 72.9826 104.064V103.897C72.9826 103.644 72.8823 103.43 72.6817 103.256C72.481 103.076 72.2461 102.986 71.9768 102.986C71.5702 102.986 71.2482 103.158 71.0106 103.501L70.369 103.097C70.7228 102.59 71.2455 102.337 71.9372 102.337Z" fill="black"/>
<path d="M74.3034 102.464H77.511V103.137H76.2834V106.345H75.5389V103.137H74.3034V102.464Z" fill="black"/>
<path d="M78.7059 105.157C78.7059 105.347 78.7851 105.505 78.9435 105.632C79.1072 105.758 79.2972 105.822 79.5137 105.822C79.82 105.822 80.0919 105.708 80.3295 105.481C80.5724 105.254 80.6938 104.988 80.6938 104.681C80.4668 104.502 80.15 104.412 79.7434 104.412C79.4477 104.412 79.1996 104.483 78.9989 104.626C78.8036 104.768 78.7059 104.945 78.7059 105.157ZM79.6484 102.337C80.1869 102.337 80.612 102.482 80.9235 102.773C81.235 103.058 81.3908 103.451 81.3908 103.953V106.345H80.6938V105.806H80.6621C80.3612 106.25 79.9599 106.471 79.4583 106.471C79.0306 106.471 78.6716 106.345 78.3812 106.091C78.096 105.838 77.9535 105.521 77.9535 105.141C77.9535 104.739 78.104 104.42 78.4049 104.182C78.7112 103.945 79.1177 103.826 79.6246 103.826C80.0576 103.826 80.414 103.905 80.6938 104.064V103.897C80.6938 103.644 80.5935 103.43 80.3928 103.256C80.1922 103.076 79.9572 102.986 79.688 102.986C79.2814 102.986 78.9593 103.158 78.7217 103.501L78.0802 103.097C78.434 102.59 78.9567 102.337 79.6484 102.337Z" fill="black"/>
<path d="M83.9211 102.464H84.6577V104.206H84.6735C84.7422 104.143 85.0035 103.858 85.4576 103.351L86.2734 102.464H87.1921V102.495L85.4814 104.309C85.6187 104.452 86.2153 105.12 87.2713 106.313V106.345H86.3763C86.3183 106.286 85.7586 105.642 84.6973 104.412L84.6735 104.396H84.6577V106.345H83.9211V102.464Z" fill="black"/>
<path d="M88.2037 105.157C88.2037 105.347 88.2829 105.505 88.4413 105.632C88.605 105.758 88.7951 105.822 89.0115 105.822C89.3178 105.822 89.5897 105.708 89.8273 105.481C90.0702 105.254 90.1916 104.988 90.1916 104.681C89.9646 104.502 89.6478 104.412 89.2412 104.412C88.9455 104.412 88.6974 104.483 88.4967 104.626C88.3014 104.768 88.2037 104.945 88.2037 105.157ZM89.1462 102.337C89.6847 102.337 90.1098 102.482 90.4213 102.773C90.7328 103.058 90.8886 103.451 90.8886 103.953V106.345H90.1916V105.806H90.1599C89.859 106.25 89.4577 106.471 88.9561 106.471C88.5284 106.471 88.1694 106.345 87.879 106.091C87.5939 105.838 87.4513 105.521 87.4513 105.141C87.4513 104.739 87.6018 104.42 87.9027 104.182C88.209 103.945 88.6155 103.826 89.1224 103.826C89.5554 103.826 89.9118 103.905 90.1916 104.064V103.897C90.1916 103.644 90.0913 103.43 89.8907 103.256C89.69 103.076 89.4551 102.986 89.1858 102.986C88.7792 102.986 88.4571 103.158 88.2195 103.501L87.578 103.097C87.9318 102.59 88.4545 102.337 89.1462 102.337Z" fill="black"/>
<path d="M93.6112 105.806C93.9597 105.806 94.2527 105.674 94.4903 105.41C94.7279 105.151 94.8467 104.816 94.8467 104.404C94.8467 103.998 94.7279 103.662 94.4903 103.398C94.2527 103.134 93.9597 103.002 93.6112 103.002C93.2574 103.002 92.9618 103.134 92.7242 103.398C92.4918 103.662 92.3757 103.998 92.3757 104.404C92.3757 104.816 92.4918 105.154 92.7242 105.418C92.9618 105.677 93.2574 105.806 93.6112 105.806ZM93.73 106.471C93.4449 106.471 93.1835 106.411 92.9459 106.289C92.7136 106.168 92.5341 106.007 92.4074 105.806H92.3757L92.4074 106.345V108.055H91.6787V102.464H92.3757V103.002H92.4074C92.5341 102.802 92.7136 102.641 92.9459 102.519C93.1835 102.398 93.4449 102.337 93.73 102.337C94.2422 102.337 94.6751 102.538 95.0289 102.939C95.3932 103.346 95.5754 103.834 95.5754 104.404C95.5754 104.98 95.3932 105.468 95.0289 105.869C94.6751 106.271 94.2422 106.471 93.73 106.471Z" fill="black"/>
<path d="M96.0448 102.464H99.2523V103.137H98.0247V106.345H97.2803V103.137H96.0448V102.464Z" fill="black"/>
<path d="M99.6948 104.404C99.6948 103.808 99.8823 103.314 100.257 102.923C100.637 102.532 101.115 102.337 101.691 102.337C102.266 102.337 102.741 102.532 103.116 102.923C103.496 103.314 103.686 103.808 103.686 104.404C103.686 105.006 103.496 105.5 103.116 105.885C102.741 106.276 102.266 106.471 101.691 106.471C101.115 106.471 100.637 106.276 100.257 105.885C99.8823 105.494 99.6948 105.001 99.6948 104.404ZM100.423 104.404C100.423 104.821 100.545 105.159 100.788 105.418C101.031 105.677 101.332 105.806 101.691 105.806C102.05 105.806 102.351 105.677 102.594 105.418C102.836 105.159 102.958 104.821 102.958 104.404C102.958 103.992 102.836 103.657 102.594 103.398C102.345 103.134 102.044 103.002 101.691 103.002C101.337 103.002 101.036 103.134 100.788 103.398C100.545 103.657 100.423 103.992 100.423 104.404Z" fill="black"/>
<path d="M105.117 100.832H105.711V100.84C105.711 101.046 105.816 101.189 106.027 101.268L106.099 101.284H106.186C106.328 101.284 106.447 101.189 106.542 100.999C106.558 100.935 106.566 100.89 106.566 100.864V100.832H107.144V100.88C107.144 101.249 106.933 101.545 106.511 101.767C106.373 101.809 106.254 101.83 106.154 101.83H106.13C105.74 101.83 105.433 101.637 105.212 101.252C105.148 101.115 105.117 100.975 105.117 100.832ZM104.364 102.464H105.101V104.317C105.101 104.597 105.09 104.906 105.069 105.244H105.109C105.13 105.201 105.354 104.882 105.782 104.285C106.637 103.076 107.07 102.469 107.081 102.464H107.809V106.345H107.073V104.555C107.073 104.328 107.083 103.998 107.105 103.565H107.081C106.959 103.723 106.331 104.605 105.196 106.21C105.138 106.284 105.109 106.329 105.109 106.345H104.364V102.464Z" fill="black"/>
<rect x="19.3281" y="118.601" width="124.3" height="22" rx="5.5" fill="white"/>
<path d="M45.4404 128.809C45.4404 129.649 45.1606 130.351 44.6009 130.916C44.036 131.486 43.3443 131.771 42.5259 131.771C41.7022 131.771 41.0105 131.486 40.4508 130.916C39.8912 130.351 39.6113 129.649 39.6113 128.809C39.6113 127.97 39.8912 127.267 40.4508 126.702C41.0105 126.132 41.7022 125.847 42.5259 125.847C43.3496 125.847 44.0412 126.135 44.6009 126.71C45.1606 127.275 45.4404 127.975 45.4404 128.809ZM40.3558 128.809C40.3558 129.464 40.5617 130.005 40.9736 130.433C41.3907 130.86 41.9081 131.074 42.5259 131.074C43.1436 131.074 43.6584 130.86 44.0703 130.433C44.4874 130.01 44.696 129.469 44.696 128.809C44.696 128.149 44.4874 127.608 44.0703 127.186C43.6584 126.758 43.1436 126.544 42.5259 126.544C41.9081 126.544 41.3907 126.758 40.9736 127.186C40.5617 127.613 40.3558 128.154 40.3558 128.809Z" fill="black"/>
<path d="M46.1498 127.764H49.4366V131.645H48.7001V128.437H46.8864V131.645H46.1498V127.764Z" fill="black"/>
<path d="M50.7795 127.764H54.0505V131.645H53.3139V128.437H51.5002V129.72C51.5002 130.776 51.2917 131.407 50.8746 131.613C50.7162 131.682 50.5736 131.716 50.4469 131.716C50.1934 131.695 50.0667 131.663 50.0667 131.621C50.0667 131.484 50.0694 131.27 50.0746 130.979C50.1538 131.011 50.2357 131.027 50.3202 131.027H50.3281C50.5446 131.027 50.6792 130.884 50.732 130.599C50.7637 130.367 50.7795 130.113 50.7795 129.839V127.764Z" fill="black"/>
<path d="M55.4596 130.457C55.4596 130.647 55.5388 130.805 55.6972 130.932C55.8608 131.058 56.0509 131.122 56.2674 131.122C56.5736 131.122 56.8456 131.008 57.0832 130.781C57.326 130.554 57.4475 130.288 57.4475 129.981C57.2204 129.802 56.9036 129.712 56.4971 129.712C56.2014 129.712 55.9532 129.783 55.7526 129.926C55.5572 130.068 55.4596 130.245 55.4596 130.457ZM56.402 127.637C56.9406 127.637 57.3656 127.782 57.6772 128.073C57.9887 128.358 58.1444 128.751 58.1444 129.253V131.645H57.4475V131.106H57.4158C57.1148 131.55 56.7136 131.771 56.212 131.771C55.7843 131.771 55.4252 131.645 55.1348 131.391C54.8497 131.138 54.7072 130.821 54.7072 130.441C54.7072 130.039 54.8576 129.72 55.1586 129.482C55.4648 129.245 55.8714 129.126 56.3783 129.126C56.8112 129.126 57.1676 129.205 57.4475 129.364V129.197C57.4475 128.944 57.3472 128.73 57.1465 128.556C56.9459 128.376 56.7109 128.286 56.4416 128.286C56.0351 128.286 55.713 128.458 55.4754 128.801L54.8339 128.397C55.1876 127.89 55.7104 127.637 56.402 127.637Z" fill="black"/>
<path d="M58.7683 127.764H61.9759V128.437H60.7483V131.645H60.0038V128.437H58.7683V127.764Z" fill="black"/>
<path d="M63.1707 130.457C63.1707 130.647 63.2499 130.805 63.4083 130.932C63.572 131.058 63.7621 131.122 63.9786 131.122C64.2848 131.122 64.5567 131.008 64.7943 130.781C65.0372 130.554 65.1587 130.288 65.1587 129.981C64.9316 129.802 64.6148 129.712 64.2083 129.712C63.9126 129.712 63.6644 129.783 63.4638 129.926C63.2684 130.068 63.1707 130.245 63.1707 130.457ZM64.1132 127.637C64.6518 127.637 65.0768 127.782 65.3883 128.073C65.6999 128.358 65.8556 128.751 65.8556 129.253V131.645H65.1587V131.106H65.127C64.826 131.55 64.4247 131.771 63.9231 131.771C63.4954 131.771 63.1364 131.645 62.846 131.391C62.5609 131.138 62.4183 130.821 62.4183 130.441C62.4183 130.039 62.5688 129.72 62.8698 129.482C63.176 129.245 63.5826 129.126 64.0895 129.126C64.5224 129.126 64.8788 129.205 65.1587 129.364V129.197C65.1587 128.944 65.0583 128.73 64.8577 128.556C64.6571 128.376 64.4221 128.286 64.1528 128.286C63.7463 128.286 63.4242 128.458 63.1866 128.801L62.5451 128.397C62.8988 127.89 63.4215 127.637 64.1132 127.637Z" fill="black"/>
<path d="M68.386 127.764H69.1225V129.506H69.1384C69.207 129.443 69.4684 129.158 69.9225 128.651L70.7382 127.764H71.6569V127.795L69.9462 129.609C70.0835 129.752 70.6801 130.42 71.7361 131.613V131.645H70.8412C70.7831 131.586 70.2234 130.942 69.1621 129.712L69.1384 129.696H69.1225V131.645H68.386V127.764Z" fill="black"/>
<path d="M74.0387 131.106C74.3872 131.106 74.6802 130.974 74.9178 130.71C75.1554 130.451 75.2742 130.116 75.2742 129.704C75.2742 129.298 75.1554 128.962 74.9178 128.698C74.6802 128.434 74.3872 128.302 74.0387 128.302C73.6849 128.302 73.3893 128.434 73.1517 128.698C72.9193 128.962 72.8032 129.298 72.8032 129.704C72.8032 130.116 72.9193 130.454 73.1517 130.718C73.3893 130.977 73.6849 131.106 74.0387 131.106ZM74.1575 131.771C73.8724 131.771 73.611 131.711 73.3734 131.589C73.1411 131.468 72.9616 131.307 72.8349 131.106H72.8032L72.8349 131.645V133.355H72.1062V127.764H72.8032V128.302H72.8349C72.9616 128.102 73.1411 127.941 73.3734 127.819C73.611 127.698 73.8724 127.637 74.1575 127.637C74.6697 127.637 75.1026 127.838 75.4564 128.239C75.8207 128.646 76.0029 129.134 76.0029 129.704C76.0029 130.28 75.8207 130.768 75.4564 131.169C75.1026 131.571 74.6697 131.771 74.1575 131.771Z" fill="black"/>
<path d="M76.6702 127.764H77.4068V129.617C77.4068 129.902 77.3962 130.211 77.3751 130.544H77.4147C77.4358 130.501 77.6602 130.182 78.0879 129.585C78.9433 128.376 79.3762 127.769 79.3868 127.764H80.1154V131.645H79.3789V129.855C79.3789 129.628 79.3894 129.298 79.4106 128.865H79.3868C79.2654 129.023 78.637 129.905 77.5018 131.51C77.4438 131.584 77.4147 131.629 77.4147 131.645H76.6702V127.764Z" fill="black"/>
<path d="M80.8927 127.764H84.1795V131.645H83.4429V128.437H81.6292V131.645H80.8927V127.764Z" fill="black"/>
<path d="M84.8254 127.764H88.033V128.437H86.8054V131.645H86.0609V128.437H84.8254V127.764Z" fill="black"/>
<path d="M88.4754 129.704C88.4754 129.108 88.6629 128.614 89.0378 128.223C89.4179 127.832 89.8958 127.637 90.4713 127.637C91.0468 127.637 91.522 127.832 91.8969 128.223C92.277 128.614 92.4671 129.108 92.4671 129.704C92.4671 130.306 92.277 130.8 91.8969 131.185C91.522 131.576 91.0468 131.771 90.4713 131.771C89.8958 131.771 89.4179 131.576 89.0378 131.185C88.6629 130.794 88.4754 130.301 88.4754 129.704ZM89.2041 129.704C89.2041 130.121 89.3255 130.459 89.5684 130.718C89.8113 130.977 90.1122 131.106 90.4713 131.106C90.8303 131.106 91.1313 130.977 91.3742 130.718C91.617 130.459 91.7385 130.121 91.7385 129.704C91.7385 129.292 91.617 128.957 91.3742 128.698C91.126 128.434 90.825 128.302 90.4713 128.302C90.1175 128.302 89.8166 128.434 89.5684 128.698C89.3255 128.957 89.2041 129.292 89.2041 129.704Z" fill="black"/>
<path d="M93.1211 127.764H95.0852C95.4918 127.764 95.8244 127.946 96.0832 128.31C96.194 128.484 96.2495 128.669 96.2495 128.865C96.2495 129.229 96.0805 129.488 95.7426 129.641V129.657C95.7426 129.667 95.8192 129.709 95.9723 129.783C96.2521 129.958 96.392 130.2 96.392 130.512C96.392 130.929 96.1914 131.256 95.7901 131.494C95.6159 131.594 95.4179 131.645 95.1961 131.645H93.1211V127.764ZM93.8576 128.437V129.372H95.0694C95.2489 129.372 95.3915 129.263 95.4971 129.047C95.5076 128.983 95.5129 128.936 95.5129 128.904C95.5129 128.693 95.3888 128.54 95.1407 128.445C95.1037 128.44 95.072 128.437 95.0456 128.437H93.8576ZM93.8576 129.973V130.971H95.1486C95.3334 130.971 95.4839 130.874 95.6 130.678C95.6264 130.615 95.6396 130.557 95.6396 130.504V130.464C95.6396 130.237 95.5024 130.076 95.2278 129.981C95.2014 129.976 95.1724 129.973 95.1407 129.973H93.8576Z" fill="black"/>
<path d="M97.6196 130.457C97.6196 130.647 97.6988 130.805 97.8572 130.932C98.0209 131.058 98.211 131.122 98.4275 131.122C98.7337 131.122 99.0056 131.008 99.2432 130.781C99.4861 130.554 99.6076 130.288 99.6076 129.981C99.3805 129.802 99.0637 129.712 98.6572 129.712C98.3615 129.712 98.1133 129.783 97.9127 129.926C97.7173 130.068 97.6196 130.245 97.6196 130.457ZM98.5621 127.637C99.1007 127.637 99.5257 127.782 99.8372 128.073C100.149 128.358 100.305 128.751 100.305 129.253V131.645H99.6076V131.106H99.5759C99.2749 131.55 98.8736 131.771 98.372 131.771C97.9444 131.771 97.5853 131.645 97.2949 131.391C97.0098 131.138 96.8672 130.821 96.8672 130.441C96.8672 130.039 97.0177 129.72 97.3187 129.482C97.6249 129.245 98.0315 129.126 98.5384 129.126C98.9713 129.126 99.3277 129.205 99.6076 129.364V129.197C99.6076 128.944 99.5072 128.73 99.3066 128.556C99.106 128.376 98.871 128.286 98.6017 128.286C98.1952 128.286 97.8731 128.458 97.6355 128.801L96.994 128.397C97.3477 127.89 97.8704 127.637 98.5621 127.637Z" fill="black"/>
<path d="M101.625 127.764H104.896V131.645H104.16V128.437H102.346V129.72C102.346 130.776 102.137 131.407 101.72 131.613C101.562 131.682 101.419 131.716 101.293 131.716C101.039 131.695 100.913 131.663 100.913 131.621C100.913 131.484 100.915 131.27 100.92 130.979C101 131.011 101.081 131.027 101.166 131.027H101.174C101.39 131.027 101.525 130.884 101.578 130.599C101.609 130.367 101.625 130.113 101.625 129.839V127.764Z" fill="black"/>
<path d="M109.101 127.629C109.112 127.634 109.125 127.637 109.141 127.637H109.157C109.679 127.637 110.128 127.824 110.503 128.199C110.899 128.601 111.097 129.086 111.097 129.657V129.736C111.097 130.512 110.764 131.109 110.099 131.526C109.798 131.695 109.46 131.779 109.085 131.779C108.478 131.779 107.969 131.542 107.557 131.066C107.351 130.808 107.216 130.515 107.153 130.187C107.137 130.129 107.129 130.082 107.129 130.045H106.472V131.645H105.735V127.764H106.472V129.364H107.129V129.348C107.155 129.042 107.293 128.714 107.541 128.366C107.974 127.88 108.462 127.637 109.006 127.637H109.054C109.069 127.637 109.085 127.634 109.101 127.629ZM107.834 129.704C107.834 130.338 108.106 130.776 108.65 131.019C108.803 131.077 108.953 131.106 109.101 131.106C109.597 131.106 109.972 130.863 110.226 130.377C110.316 130.177 110.36 129.963 110.36 129.736V129.696C110.36 129.126 110.131 128.709 109.671 128.445C109.481 128.35 109.294 128.302 109.109 128.302C108.75 128.302 108.444 128.437 108.19 128.706C107.953 128.97 107.834 129.303 107.834 129.704Z" fill="black"/>
<path d="M111.579 127.764H114.786V128.437H113.559V131.645H112.814V128.437H111.579V127.764Z" fill="black"/>
<path d="M115.229 129.704C115.229 129.108 115.416 128.614 115.791 128.223C116.171 127.832 116.649 127.637 117.224 127.637C117.8 127.637 118.275 127.832 118.65 128.223C119.03 128.614 119.22 129.108 119.22 129.704C119.22 130.306 119.03 130.8 118.65 131.185C118.275 131.576 117.8 131.771 117.224 131.771C116.649 131.771 116.171 131.576 115.791 131.185C115.416 130.794 115.229 130.301 115.229 129.704ZM115.957 129.704C115.957 130.121 116.079 130.459 116.322 130.718C116.564 130.977 116.865 131.106 117.224 131.106C117.584 131.106 117.884 130.977 118.127 130.718C118.37 130.459 118.492 130.121 118.492 129.704C118.492 129.292 118.37 128.957 118.127 128.698C117.879 128.434 117.578 128.302 117.224 128.302C116.871 128.302 116.57 128.434 116.322 128.698C116.079 128.957 115.957 129.292 115.957 129.704Z" fill="black"/>
<path d="M120.65 126.132H121.244V126.14C121.244 126.346 121.35 126.489 121.561 126.568L121.633 126.584H121.72C121.862 126.584 121.981 126.489 122.076 126.299C122.092 126.235 122.1 126.19 122.1 126.164V126.132H122.678V126.18C122.678 126.549 122.467 126.845 122.044 127.067C121.907 127.109 121.788 127.13 121.688 127.13H121.664C121.273 127.13 120.967 126.937 120.745 126.552C120.682 126.415 120.65 126.275 120.65 126.132ZM119.898 127.764H120.635V129.617C120.635 129.897 120.624 130.206 120.603 130.544H120.643C120.664 130.501 120.888 130.182 121.316 129.585C122.171 128.376 122.604 127.769 122.615 127.764H123.343V131.645H122.607V129.855C122.607 129.628 122.617 129.298 122.638 128.865H122.615C122.493 129.023 121.865 129.905 120.73 131.51C120.672 131.584 120.643 131.629 120.643 131.645H119.898V127.764Z" fill="black"/>
<rect x="19.3281" y="143.901" width="124.3" height="22" rx="5.5" fill="white"/>
<path d="M55.6983 154.901C55.6983 155.741 55.4184 156.443 54.8587 157.008C54.2938 157.578 53.6021 157.863 52.7837 157.863C51.96 157.863 51.2683 157.578 50.7087 157.008C50.149 156.443 49.8691 155.741 49.8691 154.901C49.8691 154.062 50.149 153.359 50.7087 152.795C51.2683 152.224 51.96 151.939 52.7837 151.939C53.6074 151.939 54.2991 152.227 54.8587 152.802C55.4184 153.367 55.6983 154.067 55.6983 154.901ZM50.6136 154.901C50.6136 155.556 50.8195 156.097 51.2314 156.525C51.6485 156.953 52.1659 157.166 52.7837 157.166C53.4015 157.166 53.9163 156.953 54.3281 156.525C54.7452 156.102 54.9538 155.561 54.9538 154.901C54.9538 154.241 54.7452 153.7 54.3281 153.278C53.9163 152.85 53.4015 152.636 52.7837 152.636C52.1659 152.636 51.6485 152.85 51.2314 153.278C50.8195 153.705 50.6136 154.247 50.6136 154.901Z" fill="black"/>
<path d="M56.4077 153.856H59.6945V157.737H58.9579V154.529H57.1442V157.737H56.4077V153.856Z" fill="black"/>
<path d="M61.0373 153.856H64.3083V157.737H63.5717V154.529H61.7581V155.812C61.7581 156.868 61.5495 157.499 61.1324 157.705C60.974 157.774 60.8314 157.808 60.7047 157.808C60.4513 157.787 60.3245 157.755 60.3245 157.713C60.3245 157.576 60.3272 157.362 60.3325 157.071C60.4117 157.103 60.4935 157.119 60.578 157.119H60.5859C60.8024 157.119 60.937 156.976 60.9898 156.691C61.0215 156.459 61.0373 156.205 61.0373 155.931V153.856Z" fill="black"/>
<path d="M65.7174 156.549C65.7174 156.739 65.7966 156.897 65.955 157.024C66.1187 157.151 66.3087 157.214 66.5252 157.214C66.8315 157.214 67.1034 157.1 67.341 156.873C67.5839 156.646 67.7053 156.38 67.7053 156.073C67.4783 155.894 67.1615 155.804 66.7549 155.804C66.4592 155.804 66.2111 155.875 66.0104 156.018C65.8151 156.161 65.7174 156.337 65.7174 156.549ZM66.6599 153.729C67.1984 153.729 67.6235 153.874 67.935 154.165C68.2465 154.45 68.4023 154.843 68.4023 155.345V157.737H67.7053V157.198H67.6736C67.3727 157.642 66.9714 157.863 66.4698 157.863C66.0421 157.863 65.6831 157.737 65.3927 157.483C65.1075 157.23 64.965 156.913 64.965 156.533C64.965 156.131 65.1155 155.812 65.4164 155.574C65.7227 155.337 66.1292 155.218 66.6361 155.218C67.0691 155.218 67.4255 155.297 67.7053 155.456V155.289C67.7053 155.036 67.605 154.822 67.4043 154.648C67.2037 154.468 66.9687 154.379 66.6995 154.379C66.2929 154.379 65.9708 154.55 65.7332 154.893L65.0917 154.489C65.4455 153.983 65.9682 153.729 66.6599 153.729Z" fill="black"/>
<path d="M69.0261 153.856H72.2337V154.529H71.0061V157.737H70.2616V154.529H69.0261V153.856Z" fill="black"/>
<path d="M72.8979 153.856H73.6345V155.709C73.6345 155.994 73.6239 156.303 73.6028 156.636H73.6424C73.6635 156.593 73.8879 156.274 74.3156 155.677C75.1709 154.468 75.6039 153.861 75.6145 153.856H76.3431V157.737H75.6065V155.947C75.6065 155.72 75.6171 155.39 75.6382 154.957H75.6145C75.493 155.115 74.8647 155.997 73.7295 157.602C73.6714 157.676 73.6424 157.721 73.6424 157.737H72.8979V153.856Z" fill="black"/>
<path d="M76.9461 153.856H80.1537V154.529H78.9261V157.737H78.1816V154.529H76.9461V153.856Z" fill="black"/>
<path d="M80.7625 153.856H81.499V155.147H82.4732C82.9061 155.147 83.2097 155.205 83.384 155.321C83.8592 155.59 84.0968 155.965 84.0968 156.446V156.477C84.0968 156.947 83.8407 157.322 83.3285 157.602C83.1226 157.692 82.9352 157.737 82.7662 157.737H80.7625V153.856ZM81.499 155.82V157.063H82.7187C82.9721 157.063 83.1701 156.929 83.3127 156.659C83.3233 156.617 83.3365 156.549 83.3523 156.454C83.3523 156.19 83.1965 155.989 82.885 155.852C82.7953 155.831 82.7134 155.82 82.6395 155.82H81.499Z" fill="black"/>
<path d="M88.2613 157.863C87.6858 157.863 87.2079 157.668 86.8278 157.277C86.4529 156.876 86.2654 156.382 86.2654 155.796C86.2654 155.2 86.4529 154.706 86.8278 154.315C87.2079 153.924 87.6858 153.729 88.2613 153.729C88.6573 153.729 89.0031 153.829 89.2988 154.03C89.5945 154.225 89.8162 154.497 89.9641 154.846L89.2988 155.123C89.0929 154.637 88.7312 154.394 88.2138 154.394C87.8811 154.394 87.5934 154.529 87.3505 154.798C87.1129 155.068 86.9941 155.4 86.9941 155.796C86.9941 156.192 87.1129 156.525 87.3505 156.794C87.5934 157.063 87.8811 157.198 88.2138 157.198C88.747 157.198 89.1219 156.955 89.3384 156.469L89.9878 156.747C89.8453 157.095 89.6209 157.37 89.3146 157.57C89.0137 157.766 88.6626 157.863 88.2613 157.863Z" fill="black"/>
<g clip-path="url(#clip0_95_3851)">
<path d="M108.745 150.539H96.5298C94.1316 150.539 92.1875 152.483 92.1875 154.881C92.1875 157.279 94.1316 159.223 96.5298 159.223H108.745C111.143 159.223 113.087 157.279 113.087 154.881C113.087 152.483 111.143 150.539 108.745 150.539Z" fill="#303030"/>
<path d="M102.926 153.595H101.193V156.362H102.036V155.618H102.926C103.135 155.618 103.338 155.612 103.536 155.548C103.92 155.426 104.205 155.083 104.205 154.618C104.205 154.153 103.926 153.815 103.548 153.682C103.339 153.606 103.141 153.595 102.926 153.595H102.926ZM102.037 154.967V154.263H102.805C102.967 154.263 103.061 154.281 103.136 154.31C103.27 154.362 103.333 154.484 103.333 154.612C103.333 154.752 103.258 154.886 103.113 154.932C103.043 154.955 102.962 154.967 102.805 154.967H102.037Z" fill="white"/>
<path d="M105.414 155.351L105.815 154.235H105.879L106.28 155.351H105.414ZM105.205 155.962H106.485L106.647 156.362H107.595L106.461 153.595H105.228L104.094 156.362H105.047L105.204 155.962H105.205Z" fill="white"/>
<path d="M109.647 153.595L108.961 154.856H108.932L108.24 153.595H107.258L108.508 155.63V156.362H109.38V155.56L110.567 153.595H109.647Z" fill="white"/>
<path d="M94.709 152.774H99.3922V155.129C99.3922 155.733 99.0697 156.291 98.5472 156.593L97.0506 157.457L95.5539 156.593C95.0307 156.291 94.709 155.733 94.709 155.129V152.774Z" fill="#FFDD2D"/>
<path fill-rule="evenodd" clip-rule="evenodd" d="M95.9948 154.013V154.746C96.0952 154.632 96.2769 154.556 96.4853 154.556H96.7114V155.408C96.7114 155.634 96.6499 155.833 96.5584 155.942H97.5427C97.4518 155.833 97.3903 155.634 97.3903 155.408V154.557H97.6164C97.8248 154.557 98.0072 154.633 98.1069 154.746V154.014H95.9941L95.9948 154.013Z" fill="#333333"/>
</g>
<g clip-path="url(#clip1_95_3851)">
<path d="M60.058 46.2891L55.9827 44.3234L54.9766 47.3567L59.0518 49.3223L60.058 46.2891Z" fill="#533BEB"/>
<path d="M63.4082 36.8762H59.3373C58.8877 36.8762 58.4288 37.2263 58.3124 37.6581L55.0251 49.8549C54.9087 50.2867 55.1789 50.6368 55.6285 50.6368H58.8853C59.3349 50.6368 59.7938 50.2867 59.9102 49.8549L60.2895 48.4476C60.4059 48.0158 60.8648 47.6708 61.3256 47.6165C62.6662 47.4584 64.0236 46.9244 65.1864 46.0856C66.5889 45.0739 67.5935 43.7018 67.9792 42.271C68.3648 40.8402 68.0999 39.468 67.2426 38.4563C66.3854 37.4446 65.0061 36.8762 63.4082 36.8762Z" fill="white"/>
<path d="M55.0215 47.2276L60.7946 44.443C61.0632 44.3135 61.3412 44.3903 61.4156 44.6147L61.6488 45.3175C61.7525 45.6302 62.2226 45.6302 62.4949 45.3175L66.9447 40.2072C67.217 39.8945 67.0874 39.5035 66.7113 39.5035H60.5664C60.1903 39.5035 59.8499 39.8945 59.9537 40.2072L60.14 40.7689C60.2144 40.9933 60.057 41.2802 59.7885 41.4097L56.1115 43.1833L55.0215 47.2276Z" fill="url(#paint0_linear_95_3851)"/>
<path d="M71.4507 42.932L71.1977 43.87C71.1252 44.1397 71.1575 44.3634 71.2947 44.5413C71.4379 44.7191 71.662 44.8081 71.9666 44.8081C72.3131 44.8081 72.6272 44.6847 72.9088 44.438C73.1903 44.1913 73.3906 43.8471 73.5097 43.4053C73.6287 42.9635 73.614 42.6193 73.4655 42.3726C73.3228 42.1258 73.0753 42.0025 72.7228 42.0025C72.4181 42.0025 72.1461 42.0915 71.9071 42.2693C71.6739 42.4471 71.5217 42.668 71.4507 42.932ZM70.1865 47.6222H69.0215L70.7727 41.1247H71.884L71.7656 41.5636H71.7836C71.7882 41.5464 71.8402 41.4976 71.9395 41.4173C72.0403 41.3313 72.2084 41.2394 72.4439 41.1419C72.6853 41.0444 72.9433 40.9956 73.2182 40.9956C73.7798 40.9956 74.2109 41.2136 74.5117 41.6497C74.8184 42.0857 74.8727 42.6709 74.6748 43.4053C74.4754 44.1454 74.1137 44.7335 73.5898 45.1695C73.0677 45.5998 72.5168 45.815 71.9372 45.815C71.6265 45.815 71.3813 45.7605 71.2016 45.6514C71.0294 45.5367 70.9169 45.422 70.8643 45.3072L70.8445 45.247H70.8267L70.1865 47.6222Z" fill="white"/>
<path d="M75.8565 45.6859H74.6465L76.3398 39.4036H77.5496L75.8565 45.6859Z" fill="white"/>
<path d="M80.4398 45.6859H79.4631L79.5813 45.247H79.5635C79.5619 45.2527 79.5407 45.2756 79.4999 45.3158C79.4668 45.3502 79.4097 45.3961 79.3285 45.4535C79.2473 45.5109 79.1519 45.5654 79.0425 45.617C78.9389 45.6687 78.804 45.7146 78.6378 45.7547C78.4717 45.7949 78.2991 45.815 78.1197 45.815C77.5702 45.815 77.18 45.6887 76.9493 45.4363C76.7246 45.1839 76.6655 44.8597 76.7723 44.4638C76.8775 44.0737 77.0772 43.7753 77.372 43.5688C77.6742 43.3565 78.1394 43.1815 78.7681 43.0438C79.3652 42.9119 79.7328 42.8115 79.8709 42.7426C80.0299 42.6623 80.1273 42.5562 80.1629 42.4242C80.2015 42.2808 80.1638 42.166 80.0496 42.0799C79.9368 41.9882 79.7491 41.9423 79.4862 41.9423C79.1875 41.9423 78.9494 42.0054 78.772 42.1316C78.596 42.2521 78.4323 42.4386 78.2806 42.691L77.4171 42.3037C77.6434 41.9078 77.9555 41.5923 78.3535 41.3571C78.753 41.1161 79.2096 40.9956 79.7235 40.9956C80.3089 40.9956 80.7446 41.1419 81.0301 41.4345C81.3216 41.7271 81.3845 42.1804 81.2192 42.7943L80.4398 45.6859ZM78.7924 43.8184C78.4945 43.8815 78.2825 43.9589 78.1561 44.0507C78.0299 44.1425 77.9488 44.2544 77.9133 44.3864C77.8298 44.6962 78.021 44.8511 78.4872 44.8511C78.8276 44.8511 79.1038 44.7909 79.3155 44.6704C79.5348 44.5442 79.6715 44.3806 79.7255 44.1798L79.9389 43.3881H79.9211C79.8697 43.4455 79.8327 43.4827 79.8103 43.4999C79.6973 43.586 79.3581 43.6922 78.7924 43.8184Z" fill="white"/>
<path d="M81.9274 44.0593L82.4634 42.0714H81.7285L81.9835 41.1247H82.7454L83.0467 40.0059H84.149L83.8477 41.1247H85.0485L84.7933 42.0714H83.6104L83.1024 43.9561C83.036 44.2028 83.0314 44.3749 83.0887 44.4724C83.1537 44.5642 83.3117 44.6101 83.5625 44.6101H83.9477L83.6581 45.6859H83.1648C82.5317 45.6859 82.1272 45.5568 81.9519 45.2986C81.7808 45.0462 81.7729 44.6331 81.9274 44.0593Z" fill="white"/>
<path d="M87.8613 44.111L88.4913 44.7995C87.8251 45.4765 87.0795 45.815 86.2549 45.815C85.5916 45.815 85.1098 45.5969 84.809 45.1609C84.5085 44.7249 84.457 44.1397 84.6549 43.4053C84.8513 42.6767 85.2145 42.0943 85.7441 41.6583C86.2874 41.2165 86.8728 40.9956 87.4999 40.9956C88.1334 40.9956 88.5936 41.2165 88.8808 41.6583C89.1757 42.0943 89.2248 42.6767 89.0283 43.4053L88.9377 43.7409H85.7474C85.6711 44.0909 85.6971 44.3605 85.825 44.5499C85.9607 44.7335 86.187 44.8253 86.5036 44.8253C86.7547 44.8253 86.9822 44.7679 87.1865 44.6531C87.398 44.5327 87.6231 44.3519 87.8613 44.111ZM85.9724 42.9061H88.0335C88.0828 42.6135 88.0362 42.3869 87.8942 42.2263C87.76 42.0599 87.5404 41.9767 87.2356 41.9767C86.955 41.9767 86.6978 42.0656 86.4647 42.2435C86.2332 42.4156 86.0689 42.6365 85.9724 42.9061Z" fill="white"/>
<path d="M92.5208 43.87L92.7734 42.932C92.8448 42.668 92.8089 42.4471 92.6654 42.2693C92.5281 42.0915 92.3073 42.0025 92.0025 42.0025C91.6499 42.0025 91.3329 42.1258 91.0512 42.3726C90.7755 42.6193 90.5785 42.9635 90.4592 43.4053C90.3402 43.8471 90.3549 44.1913 90.5036 44.438C90.6522 44.6847 90.8996 44.8081 91.2463 44.8081C91.551 44.8081 91.8201 44.7191 92.0532 44.5413C92.2923 44.3634 92.4481 44.1397 92.5208 43.87ZM88.7695 46.6153L89.7944 46.0387C89.8666 46.3027 89.9738 46.492 90.1161 46.6067C90.2588 46.7215 90.4643 46.7788 90.7331 46.7788C91.402 46.7788 91.8225 46.4604 91.9942 45.8236L92.1496 45.247H92.1316C91.999 45.4076 91.8041 45.5425 91.5478 45.6514C91.2972 45.7605 91.0468 45.815 90.7956 45.815C90.1863 45.815 89.7325 45.6027 89.4347 45.1781C89.1385 44.7478 89.0918 44.1569 89.2943 43.4053C89.4923 42.6709 89.862 42.0857 90.4037 41.6497C90.9395 41.2136 91.4972 40.9956 92.0766 40.9956C92.6204 40.9956 92.9878 41.1849 93.1782 41.5636H93.1962L93.3146 41.1247H94.4259L93.1966 45.6859C93.017 46.3514 92.6764 46.862 92.1743 47.2177C91.6721 47.5735 91.1042 47.7513 90.4708 47.7513C89.987 47.7513 89.599 47.6509 89.3065 47.4501C89.0141 47.2493 88.8353 46.971 88.7695 46.6153Z" fill="white"/>
<path d="M97.727 45.6859H96.7503L96.8683 45.247H96.8507C96.8488 45.2527 96.8279 45.2756 96.7871 45.3158C96.7538 45.3502 96.6969 45.3961 96.6157 45.4535C96.5345 45.5109 96.4389 45.5654 96.3295 45.617C96.2259 45.6687 96.091 45.7146 95.925 45.7547C95.7587 45.7949 95.5862 45.815 95.4071 45.815C94.8572 45.815 94.467 45.6887 94.2363 45.4363C94.0116 45.1839 93.9527 44.8597 94.0593 44.4638C94.1645 44.0737 94.3643 43.7753 94.6592 43.5688C94.9612 43.3565 95.4265 43.1815 96.0552 43.0438C96.6523 42.9119 97.0199 42.8115 97.158 42.7426C97.3171 42.6623 97.4145 42.5562 97.4498 42.4242C97.4885 42.2808 97.4508 42.166 97.3367 42.0799C97.2239 41.9882 97.036 41.9423 96.7734 41.9423C96.4746 41.9423 96.2364 42.0054 96.0591 42.1316C95.8831 42.2521 95.7195 42.4386 95.5676 42.691L94.7042 42.3037C94.9303 41.9078 95.2425 41.5923 95.6405 41.3571C96.04 41.1161 96.4968 40.9956 97.0105 40.9956C97.5961 40.9956 98.0318 41.1419 98.3172 41.4345C98.6088 41.7271 98.6717 42.1804 98.5062 42.7943L97.727 45.6859ZM96.0795 43.8184C95.7815 43.8815 95.5695 43.9589 95.4433 44.0507C95.3169 44.1425 95.2359 44.2544 95.2005 44.3864C95.117 44.6962 95.3081 44.8511 95.7744 44.8511C96.1148 44.8511 96.391 44.7909 96.6025 44.6704C96.8218 44.5442 96.9585 44.3806 97.0127 44.1798L97.2261 43.3881H97.2081C97.1568 43.4455 97.1199 43.4827 97.0972 43.4999C96.9845 43.586 96.6451 43.6922 96.0795 43.8184Z" fill="white"/>
<path d="M99.9586 45.6859H98.623L98.9528 44.4638H100.288L99.9586 45.6859Z" fill="white"/>
<path d="M102.105 45.6859H100.939L102.169 41.1248H103.334L102.105 45.6859ZM103.513 40.4621H102.348L102.633 39.4036H103.798L103.513 40.4621Z" fill="white"/>
<path d="M104.451 44.4466C104.572 44.6876 104.802 44.8081 105.142 44.8081C105.483 44.8081 105.778 44.6876 106.029 44.4466C106.288 44.1942 106.477 43.8471 106.596 43.4053C106.717 42.9578 106.711 42.6135 106.579 42.3726C106.46 42.1258 106.233 42.0025 105.899 42.0025C105.57 42.0025 105.275 42.123 105.013 42.364C104.755 42.6107 104.566 42.9578 104.445 43.4053C104.324 43.8528 104.327 44.1999 104.451 44.4466ZM103.298 43.4053C103.499 42.6594 103.873 42.0714 104.419 41.6411C104.965 41.2108 105.549 40.9956 106.17 40.9956C106.792 40.9956 107.259 41.2108 107.573 41.6411C107.888 42.0714 107.944 42.6594 107.743 43.4053C107.538 44.1684 107.169 44.7593 106.638 45.1781C106.099 45.6027 105.51 45.815 104.871 45.815C104.232 45.815 103.757 45.6027 103.447 45.1781C103.142 44.7593 103.092 44.1684 103.298 43.4053Z" fill="white"/>
</g>
<path d="M0.304305 61.3531H1.20384V73.9868H0.304305C0.137104 73.9868 0 73.8497 0 73.6825V61.6575C0 61.4902 0.137104 61.3531 0.304305 61.3531Z" fill="#3E3E3E"/>
<path d="M1.20757 61.3533H0.304688V73.9869H1.20757V61.3533Z" fill="#3E3E3E"/>
<path d="M0.304305 85.3463H1.20384V110.346H0.304305C0.137104 110.346 0 110.209 0 110.042V85.6473C0 85.4801 0.137104 85.3463 0.304305 85.3463Z" fill="#3E3E3E"/>
<path d="M1.20757 85.3463H0.304688V110.346H1.20757V85.3463Z" fill="#3E3E3E"/>
<path d="M0.304305 117.218H1.20384V142.218H0.304305C0.137104 142.221 0 142.084 0 141.917V117.522C0 117.355 0.137104 117.218 0.304305 117.218Z" fill="#3E3E3E"/>
<path d="M1.20757 117.218H0.304688V142.218H1.20757V117.218Z" fill="#3E3E3E"/>
<path d="M162.094 142.204H161.191V102.605H162.094C162.261 102.605 162.398 102.742 162.398 102.909V141.9C162.398 142.067 162.261 142.204 162.094 142.204Z" fill="#3E3E3E"/>
<path d="M161.187 142.204H162.09V102.605H161.187V142.204Z" fill="#3E3E3E"/>
<path d="M97.973 9.20325H64.8841C61.1609 9.20325 58.1426 12.2215 58.1426 15.9448C58.1426 19.668 61.1609 22.6863 64.8841 22.6863H97.973C101.696 22.6863 104.715 19.668 104.715 15.9448C104.715 12.2215 101.696 9.20325 97.973 9.20325Z" fill="#323232"/>
<path d="M97.745 19.6601C99.795 19.6601 101.457 17.9983 101.457 15.9483C101.457 13.8983 99.795 12.2365 97.745 12.2365C95.695 12.2365 94.0332 13.8983 94.0332 15.9483C94.0332 17.9983 95.695 19.6601 97.745 19.6601Z" fill="#323232"/>
<path d="M97.7461 17.9582C98.856 17.9582 99.7558 17.0584 99.7558 15.9484C99.7558 14.8385 98.856 13.9387 97.7461 13.9387C96.6361 13.9387 95.7363 14.8385 95.7363 15.9484C95.7363 17.0584 96.6361 17.9582 97.7461 17.9582Z" fill="#323232"/>
<defs>
<linearGradient id="paint0_linear_95_3851" x1="67.1818" y1="39.5042" x2="57.4383" y2="42.8135" gradientUnits="userSpaceOnUse">
<stop stop-color="#2B99FF"/>
<stop offset="1" stop-color="#725BFF"/>
</linearGradient>
<clipPath id="clip0_95_3851">
<rect width="20.9" height="8.72524" fill="white" transform="translate(92.1875 150.539)"/>
</clipPath>
<clipPath id="clip1_95_3851">
<rect width="53" height="14" fill="white" transform="translate(54.9766 36.8762)"/>
</clipPath>
</defs>
</svg>
