<svg width="36" height="36" viewBox="0 0 36 36" fill="none" xmlns="http://www.w3.org/2000/svg">
<rect width="36" height="36" rx="18" fill="#F5F6F7"/>
<g clip-path="url(#clip0_2_2507)">
<path d="M16.0891 6L16.0098 16.8874L19.1027 18.7153V11.2451L16.0891 6Z" fill="#FAB719"/>
<path d="M16.0879 19.51V30.0001L19.1014 24.596V21.4173L16.0879 19.51Z" fill="#61B42C"/>
<path d="M27.0331 23.0086L8 11.2471L10.8549 16.3331L21.6404 23.0086H27.0331Z" fill="#208BC9"/>
<path d="M16.0879 6L27.0319 12.6755H21.6392L19.1014 11.2451L16.0879 6Z" fill="#F77C1C"/>
<path d="M19.1035 14.392L21.6412 12.6755H27.034L19.1035 17.9205V14.392Z" fill="#D60B4C"/>
<path d="M19.1014 24.5935L21.6392 23.0042H27.0319L16.0879 29.9976L19.1014 24.5935Z" fill="#097F2D"/>
<path d="M8 11.2471V24.5981L10.6963 19.6709L10.8549 16.3332L8 11.2471Z" fill="#5B59A1"/>
<path d="M13.4245 17.9224L10.6963 19.6708L8 24.5979L16.0891 19.5118L13.4245 17.9224Z" fill="#9F4393"/>
</g>
<defs>
<clipPath id="clip0_2_2507">
<rect width="20" height="24" fill="white" transform="translate(8 6)"/>
</clipPath>
</defs>
</svg>
