<svg width="40" height="40" viewBox="0 0 40 40" fill="none" xmlns="http://www.w3.org/2000/svg">
<g clip-path="url(#clip0_2_2517)">
<path d="M40 20C40 8.9543 31.0457 0 20 0C8.9543 0 0 8.9543 0 20C0 31.0457 8.9543 40 20 40C31.0457 40 40 31.0457 40 20Z" fill="url(#paint0_linear_2_2517)"/>
<path d="M24.313 19.24C24.7203 18.6386 24.9561 17.9376 24.9951 17.2123C25.034 16.487 24.8746 15.7647 24.534 15.1232C24.1933 14.4817 23.6844 13.945 23.0618 13.5709C22.4391 13.1969 21.7264 12.9995 21 13V12C21 11.7348 20.8946 11.4804 20.7071 11.2929C20.5196 11.1054 20.2652 11 20 11C19.7348 11 19.4804 11.1054 19.2929 11.2929C19.1054 11.4804 19 11.7348 19 12V13H17V12C17 11.7348 16.8946 11.4804 16.7071 11.2929C16.5196 11.1054 16.2652 11 16 11C15.7348 11 15.4804 11.1054 15.2929 11.2929C15.1054 11.4804 15 11.7348 15 12V13H14C13.7348 13 13.4804 13.1054 13.2929 13.2929C13.1054 13.4804 13 13.7348 13 14C13 14.2652 13.1054 14.5196 13.2929 14.7071C13.4804 14.8946 13.7348 15 14 15H15V25H14C13.7348 25 13.4804 25.1054 13.2929 25.2929C13.1054 25.4804 13 25.7348 13 26C13 26.2652 13.1054 26.5196 13.2929 26.7071C13.4804 26.8946 13.7348 27 14 27H15V28C15 28.2652 15.1054 28.5196 15.2929 28.7071C15.4804 28.8946 15.7348 29 16 29C16.2652 29 16.5196 28.8946 16.7071 28.7071C16.8946 28.5196 17 28.2652 17 28V27H19V28C19 28.2652 19.1054 28.5196 19.2929 28.7071C19.4804 28.8946 19.7348 29 20 29C20.2652 29 20.5196 28.8946 20.7071 28.7071C20.8946 28.5196 21 28.2652 21 28V27H23C23.9439 27.0015 24.8578 26.6684 25.5792 26.0597C26.3007 25.451 26.783 24.6063 26.9405 23.6757C27.098 22.745 26.9204 21.7886 26.4393 20.9765C25.9583 20.1644 25.2049 19.5491 24.313 19.24ZM23 17C23 17.5304 22.7893 18.0391 22.4142 18.4142C22.0391 18.7893 21.5304 19 21 19H17V15H21C21.5304 15 22.0391 15.2107 22.4142 15.5858C22.7893 15.9609 23 16.4696 23 17ZM23 25H17V21H23C23.5304 21 24.0391 21.2107 24.4142 21.5858C24.7893 21.9609 25 22.4696 25 23C25 23.5304 24.7893 24.0391 24.4142 24.4142C24.0391 24.7893 23.5304 25 23 25Z" fill="white"/>
</g>
<defs>
<linearGradient id="paint0_linear_2_2517" x1="4.50018" y1="3.5" x2="30.0002" y2="40" gradientUnits="userSpaceOnUse">
<stop stop-color="#F7A84A"/>
<stop offset="1" stop-color="#F7931A"/>
</linearGradient>
<clipPath id="clip0_2_2517">
<rect width="40" height="40" fill="white"/>
</clipPath>
</defs>
</svg>
