<svg width="40" height="40" viewBox="0 0 40 40" fill="none" xmlns="http://www.w3.org/2000/svg">
<g clip-path="url(#clip0_2_2503)">
<path d="M40 20C40 8.9543 31.0457 0 20 0C8.9543 0 0 8.9543 0 20C0 31.0457 8.9543 40 20 40C31.0457 40 40 31.0457 40 20Z" fill="white"/>
<path d="M5.92969 16.0006H8.56969C8.80969 16.0006 9.52971 15.9173 9.84971 17.084C10.0897 17.834 10.4097 19.0006 10.8897 20.7506H11.0497C11.5297 18.9173 11.9297 17.6673 12.0897 17.084C12.4097 15.9173 13.2097 16.0006 13.5297 16.0006H16.0097V24.0006H13.4497V19.2506H13.2897L11.9297 24.0006H10.0097L8.64969 19.2506H8.40969V24.0006H5.92969M17.0497 16.0006H19.6097V20.7506H19.8497L21.5297 16.834C21.8497 16.084 22.5697 16.0006 22.5697 16.0006H24.9697V24.0006H22.4097V19.2506H22.2497L20.5697 23.1673C20.2497 23.9173 19.4497 24.0006 19.4497 24.0006H17.0497M28.4097 21.584V24.0006H26.0097V19.834H33.8497C33.5297 20.834 32.4097 21.584 31.1297 21.584" fill="#0F754E"/>
<path d="M34.0096 19.3339C34.3296 17.8339 33.3696 16.0005 31.2896 16.0005H25.8496C26.0096 17.7505 27.4496 19.3339 28.9696 19.3339" fill="url(#paint0_linear_2_2503)"/>
</g>
<defs>
<linearGradient id="paint0_linear_2_2503" x1="33.0496" y1="14.9172" x2="26.6496" y2="14.9172" gradientUnits="userSpaceOnUse">
<stop stop-color="#1F5CD7"/>
<stop offset="1" stop-color="#02AEFF"/>
</linearGradient>
<clipPath id="clip0_2_2503">
<rect width="40" height="40" fill="white"/>
</clipPath>
</defs>
</svg>
